<svg width="15" height="15" viewBox="0 0 15 15" fill="none" xmlns="http://www.w3.org/2000/svg">
<path d="M7.5 15C11.6419 15 15 11.6419 15 7.5C15 3.35812 11.6419 0 7.5 0C3.35812 0 0 3.35812 0 7.5C0 11.6419 3.35812 15 7.5 15ZM7.5 1.875C9.36656 1.875 11.25 2.94375 11.25 5.3325C11.25 6.72281 10.5609 7.80844 9.2025 8.55562C8.80875 8.77219 8.4375 9.20063 8.4375 9.375C8.4375 9.62364 8.33873 9.8621 8.16291 10.0379C7.9871 10.2137 7.74864 10.3125 7.5 10.3125C7.25136 10.3125 7.0129 10.2137 6.83709 10.0379C6.66127 9.8621 6.5625 9.62364 6.5625 9.375C6.5625 8.18531 7.65375 7.2675 8.29875 6.91313C9.24656 6.39 9.375 5.82 9.375 5.3325C9.375 3.95531 8.20031 3.75 7.5 3.75C6.59719 3.75 5.625 4.3425 5.625 5.64469C5.625 5.89333 5.52623 6.13178 5.35041 6.3076C5.1746 6.48342 4.93614 6.58219 4.6875 6.58219C4.43886 6.58219 4.2004 6.48342 4.02459 6.3076C3.84877 6.13178 3.75 5.89333 3.75 5.64469C3.75 3.19594 5.68219 1.875 7.5 1.875ZM7.5 13.1662C7.2439 13.1662 6.99829 13.0645 6.8172 12.8834C6.63611 12.7023 6.53437 12.4567 6.53437 12.2006C6.53437 11.9445 6.63611 11.6989 6.8172 11.5178C6.99829 11.3367 7.2439 11.235 7.5 11.235C7.7561 11.235 8.00171 11.3367 8.1828 11.5178C8.36389 11.6989 8.46562 11.9445 8.46562 12.2006C8.46562 12.4567 8.36389 12.7023 8.1828 12.8834C8.00171 13.0645 7.7561 13.1662 7.5 13.1662Z" fill="white"/>
</svg>
