<svg width="15" height="15" viewBox="0 0 15 15" fill="none" xmlns="http://www.w3.org/2000/svg">
<path d="M2.84156 13.9286C2.84156 14.0693 2.86582 14.2086 2.91297 14.3386C2.96011 14.4686 3.02921 14.5867 3.11633 14.6862C3.20344 14.7857 3.30686 14.8646 3.42067 14.9184C3.53449 14.9723 3.65648 15 3.77968 15C4.02848 15 4.26709 14.8871 4.44302 14.6862C4.53014 14.5867 4.59924 14.4686 4.64638 14.3386C4.69353 14.2086 4.71779 14.0693 4.71779 13.9286C4.71779 13.6444 4.61896 13.3719 4.44302 13.171C4.26709 12.97 4.02848 12.8571 3.77968 12.8571C3.53087 12.8571 3.29226 12.97 3.11633 13.171C2.9404 13.3719 2.84156 13.6444 2.84156 13.9286ZM11.2846 13.9286C11.2846 14.0693 11.3089 14.2086 11.356 14.3386C11.4032 14.4686 11.4723 14.5867 11.5594 14.6862C11.6465 14.7857 11.7499 14.8646 11.8637 14.9184C11.9775 14.9723 12.0995 15 12.2227 15C12.4715 15 12.7102 14.8871 12.8861 14.6862C12.9732 14.5867 13.0423 14.4686 13.0894 14.3386C13.1366 14.2086 13.1609 14.0693 13.1609 13.9286C13.1609 13.6444 13.062 13.3719 12.8861 13.171C12.7102 12.97 12.4715 12.8571 12.2227 12.8571C11.9739 12.8571 11.7353 12.97 11.5594 13.171C11.3835 13.3719 11.2846 13.6444 11.2846 13.9286ZM0 0.535714C0 0.677795 0.0494186 0.814055 0.137384 0.914521C0.22535 1.01499 0.344657 1.07143 0.469059 1.07143H1.44376L2.02633 3.91714L2.84156 8.57143C2.84156 8.61 2.85751 8.64321 2.86126 8.68071L2.38376 11.1343C2.36832 11.2126 2.36853 11.2938 2.38438 11.372C2.40022 11.4502 2.43129 11.5233 2.47528 11.5859C2.51927 11.6485 2.57504 11.699 2.63845 11.7336C2.70186 11.7682 2.77129 11.786 2.84156 11.7857H13.4836C13.608 11.7857 13.7273 11.7293 13.8152 11.6288C13.9032 11.5283 13.9526 11.3921 13.9526 11.25C13.9526 11.1079 13.9032 10.9717 13.8152 10.8712C13.7273 10.7707 13.608 10.7143 13.4836 10.7143H3.42694L3.64177 9.61071C3.68868 9.61929 3.73089 9.64286 3.77968 9.64286H12.3306C12.8485 9.64286 13.1609 9.52607 13.4104 8.83929L14.9339 3.50143C15.1984 2.54464 14.6177 2.14286 14.099 2.14286H2.84156C2.76838 2.14286 2.70459 2.17179 2.63611 2.19L2.27212 0.413571C2.24799 0.295878 2.18972 0.190965 2.10678 0.115882C2.02383 0.0407989 1.92109 -4.09288e-05 1.81526 3.07797e-08H0.469059C0.344657 3.07797e-08 0.22535 0.0564413 0.137384 0.156907C0.0494186 0.257373 0 0.393634 0 0.535714ZM2.86032 3.21429H14.0286L12.5314 8.46321C12.5136 8.50929 12.4985 8.5425 12.4873 8.565C12.4563 8.56821 12.4075 8.57143 12.3306 8.57143H3.77968V8.46536L3.76185 8.36143L2.86032 3.21429Z" fill="white"/>
</svg>
