<svg width="11" height="10" viewBox="0 0 11 10" fill="none" xmlns="http://www.w3.org/2000/svg">
<g clip-path="url(#clip0_30_41)">
<path d="M9.47498 8.13015L7.98977 6.65695C8.56628 5.93812 8.84547 5.02573 8.76993 4.10738C8.69439 3.18904 8.26986 2.33453 7.58364 1.71957C6.89742 1.10462 6.00167 0.775949 5.08056 0.801154C4.15946 0.826359 3.28301 1.20352 2.63145 1.85508C1.97989 2.50665 1.60273 3.38309 1.57752 4.30419C1.55232 5.2253 1.88098 6.12106 2.49594 6.80728C3.1109 7.4935 3.9654 7.91802 4.88375 7.99356C5.8021 8.0691 6.71449 7.78991 7.43331 7.2134L8.90652 8.6866C8.94373 8.72412 8.98801 8.75391 9.03679 8.77423C9.08558 8.79455 9.1379 8.80502 9.19075 8.80502C9.2436 8.80502 9.29592 8.79455 9.34471 8.77423C9.39349 8.75391 9.43776 8.72412 9.47498 8.6866C9.54713 8.61196 9.58747 8.5122 9.58747 8.40838C9.58747 8.30456 9.54713 8.2048 9.47498 8.13015ZM5.18748 7.2134C4.63324 7.2134 4.09145 7.04905 3.63061 6.74113C3.16978 6.43321 2.8106 5.99555 2.5985 5.4835C2.38641 4.97145 2.33091 4.408 2.43904 3.86441C2.54716 3.32082 2.81406 2.8215 3.20596 2.4296C3.59787 2.03769 4.09719 1.7708 4.64078 1.66267C5.18437 1.55454 5.74782 1.61004 6.25987 1.82214C6.77192 2.03424 7.20958 2.39341 7.5175 2.85425C7.82542 3.31508 7.98977 3.85687 7.98977 4.41111C7.98977 5.15433 7.69453 5.8671 7.169 6.39263C6.64347 6.91816 5.93069 7.2134 5.18748 7.2134Z" fill="#0077FF"/>
</g>
<defs>
<clipPath id="clip0_30_41">
<rect width="9.60784" height="9.60784" fill="white" transform="translate(0.78418 0.00732422)"/>
</clipPath>
</defs>
</svg>
